<?xml version="1.0" standalone="no"?>
<!DOCTYPE svg PUBLIC "-//W3C//DTD SVG 20010904//EN"
 "http://www.w3.org/TR/2001/REC-SVG-20010904/DTD/svg10.dtd">
<svg version="1.0" xmlns="http://www.w3.org/2000/svg"
 width="512.000000pt" height="512.000000pt" viewBox="0 0 512.000000 512.000000"
 preserveAspectRatio="xMidYMid meet">
<metadata>
Created by potrace 1.14, written by Peter Selinger 2001-2017
</metadata>
<g transform="translate(0.000000,512.000000) scale(0.100000,-0.100000)"
fill="#000000" stroke="none">
<path d="M1940 4187 c-3 -3 -52 -8 -110 -12 -137 -8 -130 -7 -130 -18 0 -5 8
-6 18 -2 14 5 15 4 4 -7 -11 -11 -16 -10 -27 5 -10 13 -14 15 -18 5 -3 -8 -6
-8 -6 -2 -1 8 -12 9 -33 5 -25 -6 -32 -12 -30 -27 3 -17 2 -17 -10 -3 -9 12
-24 15 -50 12 -21 -3 -38 -9 -38 -15 0 -5 5 -6 10 -3 6 3 10 2 10 -3 0 -5 -12
-14 -27 -21 -26 -10 -27 -10 -9 4 11 8 17 16 13 16 -26 5 -35 4 -58 -7 -15 -7
-30 -10 -34 -6 -5 4 -5 1 -1 -5 4 -7 2 -13 -3 -13 -6 0 -10 -5 -9 -11 2 -6 -4
-14 -12 -16 -9 -3 -11 -1 -5 4 14 11 17 33 5 33 -9 0 -31 -34 -27 -41 1 -2 -2
0 -8 6 -11 12 -45 8 -45 -5 0 -5 6 -7 14 -4 8 3 17 1 21 -5 4 -7 0 -8 -11 -4
-13 5 -15 3 -9 -8 5 -8 -1 -5 -13 5 -19 17 -22 17 -22 3 0 -10 5 -17 12 -17 6
0 8 -3 5 -6 -4 -4 -13 -1 -21 5 -11 9 -21 8 -48 -6 -49 -27 -90 -55 -118 -80
-75 -67 -78 -71 -68 -81 7 -7 5 -17 -5 -33 -16 -21 -16 -21 -14 -1 0 11 5 18
9 16 4 -3 8 0 8 5 0 6 -6 11 -14 11 -16 0 -29 -27 -20 -41 3 -5 1 -16 -4 -25
-8 -15 -10 -15 -15 0 -4 10 -3 15 3 11 6 -3 10 -1 10 4 0 6 -4 11 -9 11 -11 0
-44 -50 -34 -50 5 0 2 -4 -4 -8 -7 -5 -21 -26 -32 -47 -17 -35 -17 -42 -4 -61
8 -12 10 -25 5 -28 -13 -8 -22 3 -15 20 3 8 0 14 -7 14 -6 0 -8 -4 -5 -10 3
-5 1 -10 -6 -10 -8 0 -7 -6 3 -17 16 -19 18 -57 3 -70 -4 -5 -5 -3 -1 4 3 6 1
15 -5 19 -8 4 -7 9 2 15 7 4 10 11 6 16 -10 10 -28 -18 -22 -34 2 -7 -1 -13
-8 -13 -9 0 -9 -2 1 -8 7 -5 14 -18 17 -31 2 -12 0 -19 -6 -16 -5 4 -7 10 -4
15 3 5 2 11 -3 14 -4 2 -9 -6 -10 -19 -1 -13 5 -26 14 -29 17 -6 10 -26 -9
-26 -7 0 -6 4 3 10 13 8 12 10 -4 10 -12 0 -16 -5 -12 -16 3 -9 6 -18 6 -20 0
-3 6 -2 13 1 6 4 3 -1 -7 -9 -15 -12 -16 -16 -5 -16 12 0 12 -2 -1 -10 -14 -9
-13 -11 9 -14 5 0 13 -4 17 -8 3 -4 -3 -6 -15 -3 -23 4 -26 -2 -11 -25 6 -9 5
-17 -3 -23 -8 -6 -6 -7 6 -3 9 3 17 1 17 -4 0 -6 -4 -10 -10 -10 -5 0 -10 -7
-10 -16 0 -11 6 -15 19 -11 14 3 18 1 14 -9 -3 -8 -8 -12 -13 -9 -10 6 -2 -52
15 -115 4 -12 26 -63 45 -102 11 -23 20 -48 20 -55 0 -7 4 -13 10 -13 5 0 16
-12 24 -27 19 -38 74 -98 82 -90 3 3 -4 16 -16 29 -41 43 -61 76 -50 83 6 4
10 3 9 -2 -4 -16 13 -43 24 -36 5 3 7 2 4 -4 -4 -5 5 -20 19 -32 17 -15 23
-28 19 -40 -6 -19 6 -32 65 -71 12 -8 33 -23 46 -33 20 -15 24 -16 24 -3 0 8
4 17 8 20 4 2 8 -5 7 -17 0 -12 2 -23 5 -24 3 -1 29 -13 59 -28 29 -15 58 -28
65 -30 6 -1 20 -5 31 -9 11 -5 37 -14 58 -22 21 -8 36 -10 33 -5 -3 5 0 11 8
14 8 3 13 -1 12 -10 -1 -9 9 -17 24 -19 14 -2 45 -8 70 -14 25 -6 61 -12 80
-14 19 -3 35 -5 35 -6 0 -2 57 -12 80 -14 11 0 23 -5 27 -11 4 -6 8 -2 8 9 0
12 -5 16 -16 12 -8 -3 -12 -2 -9 4 7 11 41 8 52 -5 5 -4 2 -5 -4 -1 -8 4 -13
1 -13 -7 0 -20 29 -30 46 -16 7 6 21 9 31 6 13 -3 11 -5 -7 -6 -17 -1 -21 -4
-13 -12 8 -8 17 -8 31 0 14 8 23 8 27 1 4 -6 3 -10 -2 -9 -18 3 -33 -2 -33
-11 0 -11 28 -9 47 3 13 8 12 -18 -2 -30 -4 -4 -5 -3 -2 3 3 6 0 11 -8 11 -11
0 -12 -4 -3 -14 6 -7 19 -11 29 -8 9 3 20 2 23 -3 3 -6 -2 -9 -11 -8 -13 1
-18 -7 -18 -26 -1 -14 -7 -33 -14 -42 -7 -8 -9 -21 -5 -28 4 -7 4 -10 -1 -6
-4 4 -14 0 -22 -10 -12 -15 -12 -15 -7 0 4 13 1 15 -18 11 -13 -4 -29 -14 -36
-22 -10 -14 -11 -14 -7 -1 4 11 -1 16 -15 16 -11 0 -20 -4 -20 -8 0 -4 5 -8
12 -8 6 0 8 -3 5 -6 -4 -4 -18 1 -33 10 -31 21 -46 13 -18 -10 18 -15 17 -15
-6 -1 -14 9 -24 20 -22 27 2 8 -3 8 -17 0 -24 -12 -41 -13 -21 0 11 7 8 11
-15 20 -55 21 -100 43 -119 59 -11 9 -16 11 -13 4 4 -6 2 -15 -4 -19 -7 -4 -9
-3 -6 2 3 6 2 16 -4 24 -7 12 -9 11 -10 -5 0 -16 -3 -14 -11 8 -8 21 -13 25
-23 17 -15 -13 -61 5 -69 27 -4 9 3 7 20 -6 28 -22 44 -27 44 -12 0 5 -8 11
-17 14 -10 3 -42 20 -72 37 -29 17 -50 27 -47 21 4 -6 2 -11 -3 -11 -6 0 -11
8 -11 18 0 14 -2 15 -10 2 -6 -10 -10 -11 -10 -2 0 6 -4 12 -10 12 -5 0 -9 -6
-7 -12 1 -7 -5 -13 -13 -13 -8 0 -22 -5 -30 -10 -13 -7 -13 -6 -2 7 9 11 10
18 2 23 -5 3 -10 2 -10 -3 0 -6 -11 -13 -24 -16 -31 -8 -111 -117 -94 -127 7
-4 17 -5 23 -1 5 3 4 -2 -4 -11 -15 -18 -26 -23 -16 -7 3 6 -1 10 -10 10 -9 0
-13 -4 -10 -10 3 -5 -1 -10 -9 -10 -9 0 -16 -6 -16 -13 0 -7 -13 -28 -28 -47
-15 -19 -35 -47 -44 -61 -15 -23 -15 -26 0 -37 15 -11 14 -12 -5 -7 -28 7 -39
-10 -16 -25 17 -11 17 -11 -1 -5 -30 9 -60 -29 -52 -68 5 -27 4 -29 -7 -16 -9
12 -15 13 -22 5 -24 -26 -52 -126 -35 -126 13 0 22 18 10 22 -6 2 0 9 12 17
15 9 19 9 11 1 -6 -7 -9 -18 -7 -25 3 -7 0 -16 -6 -20 -17 -10 18 -45 38 -38
14 4 15 3 2 -6 -8 -5 -12 -11 -10 -13 3 -2 27 -18 53 -37 29 -20 54 -30 64
-27 14 6 14 8 -3 22 -18 14 -18 14 5 4 17 -9 20 -15 12 -23 -17 -17 -14 -24
22 -38 17 -7 34 -15 37 -19 3 -3 18 -14 34 -24 23 -14 30 -15 37 -5 4 7 5 18
2 24 -4 5 4 1 16 -10 13 -11 25 -18 26 -15 2 3 7 1 12 -5 4 -6 4 -7 -1 -3 -5
4 -16 2 -24 -5 -11 -8 -14 -8 -9 0 4 6 2 15 -4 18 -7 5 -9 0 -7 -11 3 -13 11
-18 26 -17 14 2 22 -3 22 -13 0 -8 4 -13 10 -9 5 3 7 13 4 23 -4 12 -3 13 3 4
5 -7 18 -10 29 -7 12 4 10 1 -6 -8 l-24 -15 38 -16 c21 -9 45 -16 52 -16 8 0
14 -4 14 -8 0 -4 8 -9 18 -10 58 -7 69 -9 81 -16 7 -5 20 -1 30 8 10 9 22 16
27 16 5 0 2 -5 -6 -10 -10 -6 -11 -10 -2 -10 6 0 12 -6 12 -13 0 -7 9 -13 20
-13 25 0 25 5 3 22 -17 13 -17 14 0 8 10 -4 22 -15 28 -25 12 -24 46 -24 73
-1 20 16 20 16 7 -1 -8 -9 -10 -21 -6 -25 4 -4 10 -1 12 6 4 10 8 10 19 1 7
-6 20 -9 27 -6 8 3 20 1 27 -3 8 -5 18 -6 23 -3 6 3 36 6 68 5 33 0 62 4 65
10 4 6 10 5 16 -3 7 -11 9 -9 5 6 -3 15 1 21 14 22 11 1 19 -3 19 -8 0 -6 -4
-7 -10 -4 -5 3 -10 -1 -10 -10 0 -12 4 -14 19 -5 11 5 27 7 35 4 9 -3 16 -1
16 6 0 6 -4 9 -8 6 -5 -3 -9 1 -9 8 0 8 6 12 14 9 7 -3 13 0 13 6 0 6 5 11 11
11 8 0 7 -5 -1 -15 -7 -9 -10 -18 -7 -22 4 -3 15 5 26 18 18 22 20 22 26 7 8
-20 35 -24 35 -5 0 6 7 -1 16 -18 8 -16 13 -37 11 -47 -3 -9 -2 -17 2 -16 19
2 22 -4 10 -19 -7 -10 -10 -15 -5 -11 16 14 38 -21 32 -50 -4 -15 -3 -22 2
-15 5 9 11 7 20 -7 10 -16 10 -20 0 -20 -7 -1 -3 -6 9 -13 12 -7 22 -16 23
-22 3 -16 34 -65 42 -65 4 0 5 -9 3 -20 -3 -13 0 -18 7 -14 8 5 9 1 4 -11 -6
-16 -4 -16 11 -4 10 7 15 10 11 5 -6 -8 20 -44 55 -75 9 -8 17 -22 17 -30 0
-8 3 -12 6 -9 3 4 21 -8 39 -25 19 -18 45 -40 59 -50 16 -11 23 -23 20 -35 -4
-13 -3 -14 4 -4 7 11 12 10 26 -3 9 -9 16 -14 16 -11 0 3 9 -2 20 -12 12 -9
24 -17 28 -18 21 -2 41 -17 35 -27 -3 -6 -1 -7 5 -3 6 3 26 -2 44 -12 26 -15
39 -16 63 -8 17 6 33 16 38 23 4 7 13 18 21 25 7 7 12 21 10 31 -1 9 3 17 9
17 7 0 6 5 -3 10 -13 9 -13 11 0 19 8 5 17 8 21 5 4 -2 10 0 14 5 3 6 -3 8
-15 6 -19 -4 -20 0 -14 63 4 37 9 71 12 76 3 5 0 6 -6 2 -8 -4 -12 0 -12 11 0
15 -2 16 -10 3 -6 -9 -10 -10 -10 -3 0 7 -9 10 -22 8 -12 -3 -26 1 -30 8 -5 8
-8 7 -8 -6 0 -14 -4 -16 -18 -8 -10 5 -30 8 -45 7 -14 -2 -24 0 -22 4 3 4 -8
10 -23 13 -15 3 -42 19 -59 35 -34 30 -42 44 -22 40 6 -2 14 4 16 12 3 9 1 11
-4 5 -13 -17 -37 -11 -42 10 -2 11 -8 23 -15 27 -7 5 -6 8 4 8 13 0 13 1 0 10
-8 5 -16 14 -16 20 -1 5 -2 11 -3 13 -2 1 -4 13 -7 27 -3 18 -2 21 5 10 5 -8
7 -18 5 -22 -3 -4 -1 -8 3 -8 13 0 46 -67 39 -78 -3 -6 2 -8 13 -5 13 3 23 -2
30 -16 9 -15 9 -21 1 -21 -6 0 -8 -5 -4 -11 4 -8 9 -7 15 2 4 7 5 17 2 22 -3
5 0 8 8 5 8 -3 14 -10 14 -16 0 -5 4 -14 9 -19 5 -5 6 -3 2 5 -4 6 -2 12 3 12
6 0 11 -4 11 -9 0 -5 7 -12 16 -15 8 -3 12 -2 9 4 -3 5 4 8 15 7 21 -1 29 -17
8 -17 -6 0 -8 -3 -5 -6 4 -4 12 -2 20 4 7 6 38 10 69 9 31 -1 56 1 55 5 -1 4
6 13 16 20 9 7 19 24 22 36 2 13 16 35 30 48 14 13 23 24 19 24 -4 0 2 8 13
17 22 20 20 36 -10 73 -11 14 -17 18 -14 8 4 -12 2 -15 -8 -11 -8 3 -12 10 -8
17 4 6 -1 5 -10 -3 -9 -7 -17 -9 -17 -3 0 5 -7 13 -16 16 -8 3 -12 2 -9 -4 3
-6 1 -10 -4 -10 -6 0 -11 4 -11 10 0 5 -12 13 -27 16 -34 9 -94 49 -85 58 3 4
-1 4 -10 1 -11 -4 -20 1 -28 15 -6 11 -15 18 -21 15 -5 -4 -9 1 -9 10 0 9 -4
14 -8 11 -5 -3 -16 8 -26 25 -9 16 -14 29 -10 29 4 0 -1 7 -12 16 -17 14 -17
15 -1 10 11 -3 16 -2 12 4 -3 6 -13 10 -21 10 -8 0 -14 5 -14 10 0 6 5 10 12
10 6 0 3 6 -7 14 -18 13 -18 14 3 27 17 11 19 16 9 28 -10 12 -9 13 1 7 13 -8
42 9 42 25 0 5 -8 9 -17 9 -15 0 -16 2 -3 10 9 6 17 5 22 -3 4 -6 10 -8 14 -4
4 3 1 13 -5 21 -10 12 -8 17 8 25 11 6 23 11 28 11 4 -1 -3 -7 -16 -14 -14 -8
-19 -16 -13 -20 6 -3 16 -1 21 6 63 77 87 124 57 112 -8 -3 -12 -12 -9 -20 3
-8 3 -14 0 -14 -3 0 -7 6 -10 14 -4 9 5 21 20 31 14 10 22 12 19 6 -4 -6 -2
-11 3 -11 6 0 11 9 11 20 0 11 4 20 9 20 11 0 53 128 46 140 -3 5 0 12 6 16 9
5 7 11 -6 21 -11 7 -13 13 -7 13 9 0 10 5 2 19 -5 11 -10 26 -10 33 1 7 7 0
14 -17 7 -16 11 -33 9 -37 -2 -5 0 -8 5 -8 4 0 8 25 7 56 0 30 3 58 7 60 14 9
9 24 -8 24 -9 0 -12 -5 -8 -12 5 -7 3 -8 -6 -3 -11 7 -10 10 1 19 17 13 26 72
10 61 -6 -3 -9 -10 -6 -15 3 -4 -3 -14 -13 -21 -15 -12 -16 -12 -6 1 6 8 10
22 9 31 -3 17 11 18 53 4 22 -7 27 -16 15 -28 -3 -4 -13 -1 -22 6 -14 11 -14
10 -2 -6 11 -14 16 -15 28 -5 13 10 19 8 33 -10 10 -12 23 -22 30 -22 6 0 8
-5 4 -11 -6 -10 4 -7 37 13 3 1 13 -3 22 -11 11 -9 17 -10 17 -2 0 6 5 11 11
11 5 0 7 -6 3 -12 -6 -10 -4 -10 7 -3 21 16 73 20 64 5 -5 -7 1 -7 14 2 18 11
23 11 31 -2 9 -13 10 -13 10 0 0 13 1 13 10 0 6 -9 10 -10 10 -3 0 7 9 10 23
7 12 -3 40 -8 62 -11 22 -3 42 -8 45 -12 3 -3 19 -7 35 -9 17 -2 39 -11 49
-20 11 -10 16 -11 12 -4 -7 12 -4 12 15 1 34 -18 77 -20 93 -3 18 17 29 18 21
2 -4 -7 0 -5 8 4 11 14 16 15 27 5 9 -9 11 -9 6 0 -6 11 29 30 47 25 4 -1 7 3
7 9 0 8 6 7 17 -2 14 -12 16 -12 8 0 -6 11 -4 13 7 8 9 -3 19 -3 22 1 4 3 14
7 22 8 11 2 14 -3 11 -16 -3 -12 0 -17 8 -13 19 7 23 -39 5 -54 -13 -11 -12
-12 5 -13 19 -1 19 -1 2 -11 -14 -8 -16 -14 -6 -25 9 -11 7 -22 -10 -49 -12
-20 -16 -33 -9 -29 7 4 8 3 4 -5 -14 -23 -13 -60 2 -66 11 -4 12 -8 2 -20 -11
-13 -10 -14 5 -8 15 5 17 3 12 -11 -5 -11 -3 -15 5 -10 8 5 9 2 5 -9 -4 -12
-1 -17 11 -18 10 0 12 -3 5 -6 -9 -3 -10 -10 -3 -24 6 -10 8 -19 4 -19 -3 0
-1 -7 6 -15 9 -11 9 -15 1 -15 -8 0 -9 -6 -3 -17 4 -10 7 -29 5 -43 -2 -14 -4
-37 -5 -52 -1 -18 -7 -28 -17 -29 -12 0 -11 -3 4 -9 11 -5 15 -9 9 -9 -6 -1
-14 -19 -18 -41 -3 -22 -11 -40 -18 -40 -6 0 -8 -3 -5 -7 4 -3 2 -12 -4 -20
-6 -7 -8 -13 -5 -13 4 0 2 -9 -4 -20 -6 -11 -16 -17 -22 -14 -6 4 -8 3 -5 -3
4 -5 -5 -25 -18 -43 -14 -19 -25 -30 -25 -25 0 4 -11 -4 -24 -18 -13 -14 -27
-23 -30 -20 -3 4 -6 1 -6 -7 0 -10 -3 -10 -14 -1 -11 9 -16 9 -22 0 -4 -8 -3
-9 4 -5 7 4 12 3 12 -3 0 -5 -15 -13 -32 -16 -18 -4 -39 -12 -47 -19 -12 -9
-13 -8 -6 4 8 13 6 13 -7 2 -15 -12 -29 -16 -105 -26 -13 -2 -23 1 -23 6 0 5
-8 4 -19 -1 -10 -6 -21 -8 -23 -5 -3 2 -17 0 -30 -5 -19 -7 -27 -18 -30 -44
-3 -25 0 -33 9 -30 12 5 17 -10 16 -44 -1 -7 3 -10 8 -7 12 7 11 -3 -3 -29
-10 -20 -10 -21 6 -8 15 13 16 12 7 -13 -6 -15 -7 -26 -1 -26 5 0 5 -12 0 -29
-4 -16 -6 -32 -3 -35 3 -2 1 -10 -3 -18 -4 -7 -8 -22 -9 -33 -4 -66 -6 -76
-14 -70 -5 3 -13 1 -16 -5 -4 -6 -1 -9 6 -8 6 2 14 -3 17 -11 2 -8 1 -11 -4
-8 -12 7 -12 -124 0 -142 7 -10 5 -12 -5 -6 -8 4 -4 -2 8 -14 12 -11 31 -21
43 -21 11 0 20 -4 20 -9 0 -11 19 -9 38 3 7 4 20 2 29 -6 12 -9 15 -9 9 0 -7
12 4 16 33 13 7 -2 10 2 6 9 -6 9 -2 9 15 0 15 -8 20 -8 16 -1 -5 7 4 14 23
17 17 4 31 11 31 16 0 5 4 6 10 3 5 -3 22 1 38 9 16 8 32 12 36 9 3 -4 6 1 6
10 0 11 7 15 20 12 12 -2 23 2 27 10 3 8 9 13 13 10 4 -3 10 2 14 10 3 8 12
12 21 9 8 -4 15 -1 15 6 0 7 7 10 14 7 11 -4 13 -1 9 11 -3 9 -3 14 2 10 4 -4
16 2 26 14 11 11 19 17 19 13 0 -5 15 6 33 23 18 18 36 30 39 26 4 -3 9 4 13
15 7 24 15 26 35 9 12 -11 12 -10 1 4 -13 18 -8 38 10 38 6 0 7 -5 4 -10 -3
-5 -1 -10 5 -10 7 0 9 8 5 20 -4 11 -2 20 4 20 6 0 17 12 25 28 8 15 18 27 23
27 4 0 7 3 6 8 -3 7 13 11 31 8 5 -1 4 4 -3 12 -9 12 -8 16 4 21 8 3 15 12 15
21 0 8 5 15 11 15 5 0 8 4 4 9 -3 5 0 13 6 17 8 5 9 3 4 -6 -6 -9 -4 -11 4 -6
7 5 10 14 7 22 -3 8 -1 14 4 14 6 0 10 5 10 11 0 7 8 18 18 26 9 8 12 12 6 9
-7 -3 -5 8 4 29 9 19 20 31 25 28 6 -3 7 -1 3 5 -4 7 -4 18 1 24 9 16 15 36
17 65 1 17 4 19 15 10 12 -10 12 -9 3 9 -9 17 -9 24 2 33 7 6 17 7 22 3 5 -4
0 3 -10 16 -11 12 -14 22 -8 22 7 0 12 5 12 12 0 6 8 21 18 32 12 15 13 17 1
8 -13 -9 -16 -9 -16 3 0 8 3 15 6 15 3 0 7 30 9 67 2 51 8 73 22 88 11 12 20
25 20 29 0 5 -9 -2 -20 -15 l-20 -24 0 45 c1 25 -1 64 -4 87 -2 24 0 40 5 37
5 -3 6 2 3 10 -3 9 -9 14 -13 11 -4 -2 -8 2 -8 10 0 8 5 11 11 8 6 -4 5 1 -2
10 -8 9 -14 32 -15 51 0 19 -4 33 -7 31 -5 -3 -10 16 -13 58 -1 9 -5 17 -9 17
-4 0 -8 12 -8 26 0 14 -4 23 -10 19 -5 -3 -10 2 -10 13 0 10 -3 22 -7 26 -5 4
-8 11 -8 14 0 4 -10 23 -22 42 -12 19 -23 42 -25 50 -2 8 -9 21 -16 28 -7 8
-9 19 -5 25 4 7 0 8 -13 3 -10 -4 -15 -4 -11 0 4 4 1 14 -6 22 -10 13 -9 14 2
7 10 -5 12 -4 7 3 -4 7 -13 12 -19 12 -7 0 -21 12 -31 27 -11 14 -14 23 -8 19
7 -4 20 -2 29 3 17 10 16 11 -2 9 -36 -2 -55 2 -55 13 0 12 -80 89 -93 89 -4
0 -5 5 -2 10 3 6 1 10 -6 10 -7 0 -19 7 -28 15 -9 8 -28 26 -42 39 -15 14 -30
22 -33 19 -3 -4 -6 -1 -6 6 0 7 -4 9 -10 6 -5 -3 -10 -1 -10 4 0 6 -7 11 -15
11 -8 0 -15 5 -15 11 0 5 -5 7 -10 4 -6 -3 -13 1 -16 9 -3 9 -10 13 -15 10 -5
-3 -12 2 -15 11 -6 13 -8 14 -15 3 -5 -8 -9 -9 -9 -2 0 7 -16 15 -35 18 -19 4
-35 11 -35 17 0 6 -4 7 -10 4 -5 -3 -10 -1 -10 4 0 6 -3 10 -7 10 -26 -4 -43
2 -37 14 6 9 4 9 -8 -1 -11 -9 -18 -10 -23 -2 -3 6 -10 8 -15 5 -4 -3 -11 2
-14 11 -5 13 -9 14 -21 4 -8 -7 -15 -9 -15 -4 0 5 -19 10 -43 12 -23 2 -55 5
-72 7 -16 1 -36 3 -43 4 -7 1 -10 6 -7 11 4 6 11 7 17 4 7 -5 8 -2 3 6 -6 10
-12 9 -25 -7 -9 -12 -22 -18 -28 -14 -15 9 -101 6 -127 -5 -19 -7 -19 -6 -5
12 14 17 14 18 -2 6 -9 -8 -23 -10 -29 -6 -8 5 -9 3 -4 -6 6 -10 1 -12 -19 -8
-14 3 -29 1 -32 -4 -3 -5 -12 -4 -20 3 -8 6 -17 9 -21 5 -3 -3 0 -6 8 -6 11 0
11 -2 -1 -10 -20 -13 -33 -13 -24 1 3 6 -5 3 -20 -6 -14 -10 -26 -13 -26 -9 0
5 -5 2 -10 -6 -6 -10 -10 -11 -10 -2 0 6 -5 12 -11 12 -5 0 -8 -3 -5 -8 2 -4
-7 -12 -20 -19 -18 -8 -22 -8 -17 0 4 7 -1 6 -10 -2 -14 -11 -17 -11 -18 0 0
8 -5 3 -10 -10 -7 -18 -15 -22 -34 -19 -13 3 -22 1 -19 -3 14 -23 -13 -4 -57
40 -37 37 -49 45 -52 32 -4 -12 -5 -11 -6 4 -1 13 -20 33 -50 53 -56 36 -63
38 -55 17 4 -8 1 -15 -6 -15 -6 0 -9 4 -6 9 3 4 -3 19 -14 31 -18 21 -20 22
-21 4 0 -16 -2 -15 -10 5 -6 15 -15 21 -24 17 -8 -3 -15 -1 -15 4 0 6 -3 9 -7
8 -5 0 -17 2 -28 7 -95 38 -88 37 -82 12 6 -21 6 -21 -8 -3 -8 11 -15 23 -15
28 0 4 -6 5 -14 2 -8 -3 -24 0 -36 6 -18 9 -26 8 -43 -7 -19 -16 -20 -16 -8
-1 11 15 11 19 -2 24 -25 9 -40 -5 -25 -23 12 -15 11 -15 -10 -2 -12 8 -18 15
-12 17 18 6 11 17 -12 18 -13 0 -56 8 -97 17 -40 9 -78 14 -82 11 -5 -3 -9 1
-9 8 0 8 -5 6 -11 -4 -11 -20 -29 -24 -29 -7 0 5 5 7 12 3 7 -4 8 -3 4 5 -4 7
-13 10 -19 8 -7 -2 -20 0 -31 5 -13 7 -16 7 -12 -1 4 -6 2 -11 -4 -11 -6 0 -8
-5 -4 -12 4 -7 3 -8 -4 -4 -6 4 -9 13 -6 20 3 8 0 17 -7 22 -8 4 -10 3 -5 -4
11 -18 -3 -14 -35 8 -15 12 -41 22 -58 23 -16 1 -27 6 -24 10 3 5 12 6 20 3 8
-3 11 -1 8 4 -3 6 -16 10 -28 11 -21 0 -21 1 -2 9 11 5 16 9 12 9 -15 2 15 42
44 60 16 10 27 20 24 23 -3 3 6 3 20 1 18 -4 25 -1 25 10 0 8 7 18 16 21 24 9
31 7 12 -5 -10 -5 -18 -15 -18 -21 0 -7 5 -6 15 2 9 8 15 8 15 2 0 -6 12 -9
28 -8 15 2 35 -1 45 -6 14 -7 24 -5 36 6 15 14 18 14 18 1 0 -8 -5 -11 -11 -8
-7 4 -8 3 -1 -4 6 -6 21 -14 35 -18 19 -5 21 -4 10 4 -11 8 -11 11 -2 11 7 0
15 -6 18 -13 3 -8 20 -20 39 -27 19 -8 35 -17 35 -21 0 -13 29 -18 36 -7 4 7
3 8 -4 4 -8 -5 -10 -2 -6 8 10 25 23 18 18 -8 -4 -23 6 -37 31 -43 31 -8 50
-7 48 3 -1 6 4 11 11 11 7 0 13 -6 13 -13 0 -7 -4 -11 -9 -8 -4 3 -8 0 -8 -6
0 -14 58 -3 89 17 24 15 24 16 5 30 -18 13 -17 14 11 8 23 -5 26 -4 15 4 -13
9 -13 11 0 11 15 0 46 39 42 53 -1 4 3 7 8 7 6 0 10 6 10 13 0 6 11 22 25 35
20 20 23 27 14 50 -8 24 -8 25 5 9 13 -17 17 -13 52 45 21 35 41 65 44 68 40
33 90 167 68 181 -7 4 -16 5 -20 3 -4 -3 -8 0 -8 6 0 7 9 9 23 6 12 -3 16 -3
10 0 -7 3 -13 13 -13 23 0 22 -38 63 -51 56 -5 -4 -9 2 -9 12 0 15 -2 15 -10
3 -6 -9 -5 -20 3 -30 6 -8 2 -6 -11 4 -23 20 -30 32 -12 21 6 -3 10 1 10 9 0
18 -16 21 -25 6 -3 -5 -12 -10 -18 -10 -7 0 -4 5 6 11 14 8 16 14 6 25 -6 8
-18 14 -25 14 -8 0 -14 3 -14 8 0 4 -24 18 -53 32 -28 14 -55 30 -60 35 -4 6
-14 2 -24 -10 -12 -16 -15 -17 -10 -3 4 12 -1 21 -13 28 -11 6 -20 8 -20 5 0
-2 -18 2 -40 11 -38 15 -42 15 -59 0 -13 -12 -21 -14 -26 -6 -5 8 -11 7 -23
-2 -15 -12 -16 -11 -3 5 10 12 17 14 26 7 9 -8 14 -6 19 5 4 12 0 14 -19 11
-14 -3 -25 0 -25 6 0 6 -9 0 -20 -13 -10 -13 -19 -18 -20 -11 0 6 5 12 10 12
6 0 10 4 10 9 0 6 -8 10 -17 9 -10 0 -29 3 -42 6 -20 5 -22 2 -17 -17 5 -21 5
-21 -13 2 -14 18 -24 22 -44 17 -15 -3 -27 -1 -29 5 -2 5 -6 8 -8 6z m-129
-26 c4 7 11 10 16 6 9 -9 -17 -28 -29 -21 -4 3 -8 11 -7 17 0 8 3 7 6 -2 4
-11 7 -11 14 0z m99 -1 c0 -5 -4 -10 -10 -10 -5 0 -10 5 -10 10 0 6 5 10 10
10 6 0 10 -4 10 -10z m35 0 c3 -5 2 -10 -4 -10 -5 0 -13 5 -16 10 -3 6 -2 10
4 10 5 0 13 -4 16 -10z m51 1 c-4 -5 -1 -12 4 -14 6 -3 5 -4 -2 -3 -15 3 -23
26 -8 26 6 0 9 -4 6 -9z m75 -6 c5 4 6 -1 2 -10 -5 -13 -7 -14 -14 -3 -5 7 -8
18 -8 23 0 6 3 4 6 -3 2 -6 9 -10 14 -7z m-411 -9 c0 -2 -9 -6 -20 -9 -11 -3
-20 -1 -20 4 0 5 9 9 20 9 11 0 20 -2 20 -4z m120 0 c0 -2 -11 -6 -25 -8 -13
-3 -22 -1 -19 3 5 9 44 13 44 5z m-220 -20 c0 -3 -4 -8 -10 -11 -5 -3 -10 -1
-10 4 0 6 5 11 10 11 6 0 10 -2 10 -4z m30 0 c0 -3 -4 -8 -10 -11 -5 -3 -10
-1 -10 4 0 6 5 11 10 11 6 0 10 -2 10 -4z m631 -19 c-10 -9 -11 -8 -5 6 3 10
9 15 12 12 3 -3 0 -11 -7 -18z m49 -2 c11 -13 10 -14 -4 -9 -9 3 -16 10 -16
15 0 13 6 11 20 -6z m28 -10 c-3 -3 -9 2 -12 12 -6 14 -5 15 5 6 7 -7 10 -15
7 -18z m-832 3 c4 -7 3 -8 -4 -4 -7 4 -12 3 -12 -2 0 -6 -8 -13 -17 -16 -15
-6 -15 -4 2 14 21 23 22 24 31 8z m892 -28 c12 -19 11 -20 -8 -8 -20 13 -27
28 -12 28 4 0 13 -9 20 -20z m37 -8 c-3 -3 -11 0 -18 7 -9 10 -8 11 6 5 10 -3
15 -9 12 -12z m48 -43 c-8 -8 -13 -7 -18 2 -5 8 -4 10 3 5 7 -4 12 -2 12 5 0
7 3 9 7 6 4 -4 2 -12 -4 -18z m41 -7 c2 -4 -5 -9 -17 -9 -17 -2 -19 0 -7 7 18
12 18 12 24 2z m-1224 -6 c0 -3 -4 -8 -10 -11 -5 -3 -10 -1 -10 4 0 6 5 11 10
11 6 0 10 -2 10 -4z m-38 -20 c7 4 8 2 4 -5 -9 -13 -26 -5 -25 12 0 9 2 8 6
-1 2 -6 10 -9 15 -6z m-55 -41 c-4 -8 -12 -15 -19 -14 -10 0 -10 2 0 6 6 2 12
12 12 21 0 8 3 13 6 9 4 -3 4 -13 1 -22z m1420 -15 c12 -18 0 -40 -14 -26 -4
3 0 6 7 6 9 0 8 6 -5 20 -10 11 -14 20 -9 20 5 0 15 -9 21 -20z m-1457 -10 c0
-5 -2 -10 -4 -10 -3 0 -8 5 -11 10 -3 6 -1 10 4 10 6 0 11 -4 11 -10z m1487
-66 c-3 -3 -12 -4 -19 -1 -8 3 -5 6 6 6 11 1 17 -2 13 -5z m-14 -44 c-3 -12
-8 -19 -11 -16 -5 6 5 36 12 36 2 0 2 -9 -1 -20z m-1631 -70 c-15 -15 -29 -24
-32 -22 -3 2 6 13 20 24 14 11 24 28 22 37 -2 14 -1 14 7 1 8 -11 4 -21 -17
-40z m1618 22 c0 -15 -2 -15 -10 -2 -13 20 -13 33 0 25 6 -3 10 -14 10 -23z
m-20 -12 c0 -5 -5 -10 -11 -10 -5 0 -7 5 -4 10 3 6 8 10 11 10 2 0 4 -4 4 -10z
m-10 -34 c-7 -7 -14 -6 -21 1 -9 9 -7 12 9 10 14 -1 18 -5 12 -11z m-43 -42
c-9 -17 -17 -23 -21 -15 -4 6 -3 11 3 11 5 0 13 9 16 21 4 11 9 18 12 16 2 -3
-2 -18 -10 -33z m-1566 17 c-8 -5 -10 -14 -6 -22 6 -11 5 -11 -5 -2 -14 12 -6
33 13 33 8 0 7 -3 -2 -9z m1547 -66 c-3 -3 -9 2 -12 12 -6 14 -5 15 5 6 7 -7
10 -15 7 -18z m-18 -29 c-7 -7 -15 -5 -22 3 -11 10 -10 11 5 5 14 -5 16 -2 11
12 -5 16 -4 16 5 4 6 -9 7 -18 1 -24z m-45 -36 c-3 -5 -1 -10 6 -10 7 0 10 -3
6 -6 -9 -9 -28 6 -22 17 4 5 8 9 11 9 3 0 2 -4 -1 -10z m-5 -35 c0 -2 -6 -5
-13 -8 -8 -3 -14 1 -14 8 0 7 6 11 14 8 7 -3 13 -6 13 -8z m-510 -41 c0 -2 -8
-1 -17 4 -10 5 -25 7 -33 5 -13 -4 -13 -3 -1 6 14 9 51 -2 51 -15z m465 -4
c-9 -10 -14 -23 -11 -29 4 -5 2 -12 -3 -15 -19 -12 -20 12 -1 36 11 14 16 29
12 33 -4 5 -1 5 6 1 11 -6 10 -12 -3 -26z m-590 10 c3 -6 -1 -7 -9 -4 -18 7
-21 14 -7 14 6 0 13 -4 16 -10z m149 -6 c3 -8 2 -12 -4 -9 -6 3 -10 10 -10 16
0 14 7 11 14 -7z m-196 -9 c-10 -10 -49 -14 -43 -4 4 5 10 7 15 4 5 -3 12 0
15 6 4 5 10 8 13 5 3 -3 3 -8 0 -11z m-28 -29 c0 -3 -4 -8 -10 -11 -5 -3 -10
-1 -10 4 0 6 5 11 10 11 6 0 10 -2 10 -4z m365 -6 c13 -6 15 -9 5 -9 -8 0 -22
4 -30 9 -18 12 -2 12 25 0z m-395 -20 c0 -5 -2 -10 -4 -10 -3 0 -8 5 -11 10
-3 6 -1 10 4 10 6 0 11 -4 11 -10z m497 -44 c0 -8 -8 -11 -20 -8 -14 4 -16 7
-5 13 19 12 25 11 25 -5z m128 -6 c3 -6 -1 -7 -9 -4 -18 7 -21 14 -7 14 6 0
13 -4 16 -10z m-1414 -17 c13 -16 12 -17 -3 -4 -10 7 -18 15 -18 17 0 8 8 3
21 -13z m1385 5 c4 -7 3 -8 -4 -4 -7 4 -12 2 -12 -5 0 -7 -3 -10 -6 -6 -6 5 3
27 11 27 2 0 7 -5 11 -12z m-565 -45 c13 -16 12 -17 -3 -4 -10 7 -18 15 -18
17 0 8 8 3 21 -13z m40 0 c13 -15 12 -15 -8 -4 -24 12 -29 21 -14 21 5 0 15
-7 22 -17z m104 -33 c3 -5 1 -10 -4 -10 -6 0 -11 5 -11 10 0 6 2 10 4 10 3 0
8 -4 11 -10z m70 -20 c3 -6 -1 -7 -9 -4 -18 7 -21 14 -7 14 6 0 13 -4 16 -10z
m59 2 c3 -5 -1 -9 -9 -9 -8 0 -15 4 -15 9 0 4 4 8 9 8 6 0 12 -4 15 -8z m41
-12 c3 -6 -1 -7 -9 -4 -18 7 -21 14 -7 14 6 0 13 -4 16 -10z m36 -7 c13 -16
12 -17 -3 -4 -17 13 -22 21 -14 21 2 0 10 -8 17 -17z m-1156 -11 c-3 -3 -11 0
-18 7 -9 10 -8 11 6 5 10 -3 15 -9 12 -12z m1295 -6 c0 -3 -4 -8 -10 -11 -5
-3 -10 -1 -10 4 0 6 5 11 10 11 6 0 10 -2 10 -4z m-1284 -26 c0 -23 -11 -27
-19 -6 -3 8 -1 17 6 20 7 2 12 5 12 5 1 1 1 -8 1 -19z m1339 0 c3 -6 -1 -7 -9
-4 -18 7 -21 14 -7 14 6 0 13 -4 16 -10z m89 -18 c3 -5 -1 -9 -9 -9 -8 0 -15
4 -15 9 0 4 4 8 9 8 6 0 12 -4 15 -8z m-1414 -16 c0 -2 -7 -7 -16 -10 -8 -3
-12 -2 -9 4 6 10 25 14 25 6z m1475 -24 c-3 -3 -11 0 -18 7 -9 10 -8 11 6 5
10 -3 15 -9 12 -12z m-1465 4 c0 -3 -4 -8 -10 -11 -5 -3 -10 -1 -10 4 0 6 5
11 10 11 6 0 10 -2 10 -4z m7 -23 c-4 -3 -2 -12 4 -20 7 -8 8 -13 1 -13 -12 0
-23 26 -15 34 4 3 9 6 11 6 3 0 2 -3 -1 -7z m1608 -41 c-3 -3 -11 0 -18 7 -9
10 -8 11 6 5 10 -3 15 -9 12 -12z m-1594 -25 c-10 -9 -11 -8 -5 6 3 10 9 15
12 12 3 -3 0 -11 -7 -18z m1619 9 c0 -3 -4 -8 -10 -11 -5 -3 -10 -1 -10 4 0 6
5 11 10 11 6 0 10 -2 10 -4z m-1597 -31 c4 -8 3 -16 -1 -19 -4 -3 -9 4 -9 15
-2 23 3 25 10 4z m1652 -15 c3 -5 1 -10 -4 -10 -6 0 -11 5 -11 10 0 6 2 10 4
10 3 0 8 -4 11 -10z m-1635 -20 c0 -5 -5 -10 -11 -10 -5 0 -7 5 -4 10 3 6 8
10 11 10 2 0 4 -4 4 -10z m1658 -25 c-3 -3 -9 2 -12 12 -6 14 -5 15 5 6 7 -7
10 -15 7 -18z m473 -5 c6 0 7 6 3 13 -6 9 -4 9 8 -1 13 -10 17 -10 21 0 3 9 9
7 22 -7 9 -11 14 -14 10 -7 -3 6 -3 12 2 13 52 5 63 3 64 -11 0 -9 3 -10 5 -3
5 11 73 9 104 -4 8 -3 24 -8 35 -10 11 -2 38 -8 60 -14 22 -6 41 -10 43 -10 1
1 9 -5 18 -13 8 -8 20 -13 27 -10 7 2 22 -4 32 -14 22 -20 27 -22 51 -22 8 0
12 -4 9 -10 -3 -5 3 -10 14 -10 12 0 21 -4 21 -10 0 -5 7 -10 16 -10 11 0 14
-5 10 -16 -5 -14 -4 -15 8 -5 12 10 18 7 31 -16 9 -15 14 -19 10 -8 -5 16 -1
15 20 -7 14 -16 31 -28 37 -28 6 0 8 -9 5 -21 -4 -16 -3 -19 5 -11 9 9 23 0
55 -33 24 -25 43 -50 43 -56 0 -5 4 -8 9 -4 5 3 12 1 16 -5 3 -5 1 -10 -4 -10
-6 0 -11 -4 -11 -10 0 -5 6 -7 14 -4 16 6 50 -42 40 -58 -4 -7 -3 -8 4 -4 11
6 38 -31 34 -46 -1 -5 3 -8 8 -8 6 0 10 -7 10 -15 0 -8 5 -15 11 -15 6 0 9 -7
5 -15 -3 -8 -2 -15 3 -15 10 0 24 -39 21 -59 -1 -7 3 -10 8 -7 5 3 12 -3 15
-13 3 -15 1 -18 -12 -14 -13 4 -13 3 1 -7 22 -14 47 -57 26 -44 -11 6 -11 5 1
-9 7 -9 11 -24 7 -32 -3 -8 -2 -15 3 -15 4 0 8 -6 9 -12 0 -7 3 -24 7 -38 12
-49 12 -55 1 -69 -8 -11 -8 -13 2 -7 6 4 12 3 12 -3 0 -5 -5 -13 -10 -16 -7
-4 -8 -11 -2 -18 11 -14 21 -87 12 -87 -4 0 -5 -14 -2 -30 3 -21 -2 -38 -14
-53 -14 -15 -14 -18 -3 -9 15 11 17 9 15 -13 -1 -18 -5 -24 -16 -20 -12 5 -12
4 -3 -6 10 -10 9 -17 -5 -33 -16 -20 -16 -20 1 -7 22 17 23 -2 0 -24 -14 -14
-14 -18 -2 -26 10 -6 10 -9 2 -9 -7 0 -12 -3 -11 -7 6 -17 -37 -135 -50 -140
-11 -5 -11 -7 0 -14 10 -7 10 -9 1 -9 -7 0 -13 -5 -13 -11 0 -6 -9 -24 -21
-40 -11 -16 -18 -29 -14 -29 3 0 3 -5 0 -10 -5 -8 -12 -7 -23 2 -16 12 -16 11
-2 -6 11 -15 12 -20 3 -23 -7 -3 -13 -11 -13 -19 0 -9 -4 -13 -9 -9 -5 3 -12
1 -16 -5 -3 -5 0 -10 7 -11 7 0 3 -4 -9 -9 -13 -5 -23 -16 -23 -24 0 -8 -7
-22 -16 -31 -13 -13 -19 -13 -33 -3 -14 11 -14 11 -3 -3 11 -14 7 -23 -27 -58
-43 -45 -53 -50 -46 -23 3 9 -2 2 -10 -16 -9 -18 -20 -30 -25 -27 -6 3 -10 2
-10 -3 0 -12 -50 -45 -67 -45 -6 0 -11 -5 -10 -11 1 -6 -9 -11 -23 -11 -15 0
-29 -9 -36 -23 -6 -12 -14 -19 -17 -15 -4 3 -17 -2 -29 -13 -14 -13 -19 -14
-14 -4 4 8 0 6 -8 -4 -9 -11 -16 -16 -16 -12 0 5 -7 3 -15 -4 -8 -7 -15 -10
-15 -6 0 4 -12 0 -27 -7 -16 -8 -34 -12 -40 -10 -7 3 -13 -1 -13 -8 0 -7 -3
-10 -6 -6 -3 3 -17 2 -31 -4 -18 -7 -22 -6 -17 4 6 8 3 8 -9 -1 -9 -8 -21 -11
-27 -7 -14 9 -13 35 3 35 9 0 9 2 0 8 -9 6 -11 26 -4 50 1 1 1 5 2 10 0 4 8
16 17 27 16 19 16 19 -1 6 -17 -13 -18 -12 -12 10 3 14 8 34 10 45 2 10 4 21
5 24 1 3 2 13 1 22 -2 12 3 16 13 12 9 -3 16 -1 16 5 0 6 -5 10 -12 9 -15 -4
-11 91 5 111 9 12 9 13 0 7 -13 -7 -18 9 -15 47 1 9 -3 17 -10 17 -6 0 -9 3
-6 6 4 3 16 1 27 -6 16 -8 21 -8 19 1 -3 13 40 20 48 7 9 -14 24 -9 24 8 0 14
2 15 17 3 11 -10 14 -10 9 -1 -4 7 -1 12 8 13 19 2 22 2 59 12 15 4 27 12 27
19 0 6 10 3 22 -8 18 -15 20 -16 9 -2 -11 15 -11 19 5 25 11 4 28 15 39 25 10
10 25 16 33 13 7 -2 10 0 7 5 -3 6 -1 10 5 10 6 0 9 3 7 8 -6 8 19 33 26 26 2
-3 7 2 11 11 4 11 2 14 -7 10 -6 -4 -2 3 11 14 13 11 24 24 25 28 1 4 6 7 10
5 5 -1 6 2 3 7 -9 15 15 61 28 54 6 -4 5 1 -3 10 -11 13 -11 17 -1 17 8 0 10
3 7 6 -10 11 13 45 26 39 7 -4 3 1 -7 9 -11 9 -14 16 -7 16 7 0 10 4 7 9 -9
14 5 42 17 34 6 -4 7 -1 2 8 -13 20 -14 52 -3 67 6 6 7 12 3 12 -5 0 0 10 11
22 13 16 14 19 2 10 -11 -9 -18 -10 -23 -2 -3 5 -1 10 6 10 7 0 9 3 6 7 -4 3
-1 13 6 21 8 11 8 14 0 9 -18 -11 -26 12 -11 30 9 12 9 15 1 9 -7 -4 -13 -3
-13 1 0 5 6 15 13 22 10 10 8 11 -8 5 -18 -7 -19 -6 -6 10 8 9 10 16 5 15 -21
-4 -26 2 -14 16 10 12 9 15 -6 15 -16 0 -17 2 -4 10 13 8 12 10 -3 10 -10 0
-15 5 -12 10 3 6 1 10 -5 10 -14 0 -3 62 14 72 6 4 7 8 2 8 -5 0 -1 9 10 21
12 13 14 19 5 17 -10 -2 -14 8 -15 35 -1 25 2 36 10 33 13 -5 12 6 -3 44 -6
14 -9 33 -7 43 1 9 -1 17 -6 17 -5 0 -11 9 -15 19 -3 11 -13 18 -23 16 -9 -1
-21 0 -27 4 -17 10 -38 10 -55 1 -11 -6 -21 -5 -28 2 -9 9 -12 9 -12 -1 0 -11
-3 -11 -17 0 -11 10 -14 10 -9 2 4 -7 2 -14 -3 -14 -20 -3 -26 -4 -36 -10 -9
-6 -64 -21 -75 -21 -3 1 -9 -6 -13 -14 -7 -13 -11 -13 -24 -2 -9 7 -18 12 -20
11 -1 -2 -14 -3 -28 -3 -17 0 -25 6 -26 18 0 9 -3 12 -5 6 -5 -12 -72 -1 -108
18 -12 7 -16 6 -11 -1 4 -8 -2 -8 -21 -1 -15 6 -29 8 -32 5 -3 -2 -11 0 -19 6
-7 6 -13 8 -13 4 0 -4 -6 -2 -14 4 -8 7 -17 8 -19 4 -7 -10 -68 -10 -85 1 -7
4 -12 2 -12 -3 0 -6 -5 -11 -11 -11 -5 0 -7 6 -3 13 6 10 4 10 -7 0 -16 -16
-33 -17 -23 -1 5 7 3 8 -7 2 -23 -14 -40 -13 -46 2 -3 8 -12 14 -19 14 -8 0
-17 7 -20 15 -4 8 -12 15 -19 15 -16 0 -56 35 -50 44 3 3 0 2 -7 -4 -13 -11
-48 38 -48 69 0 10 -3 21 -7 24 -3 4 -14 30 -24 57 -19 54 -19 54 -19 71 0 5
-5 7 -12 3 -7 -4 -8 -3 -4 4 4 7 16 12 27 12 10 0 19 5 19 10 0 5 3 9 8 9 4
-1 9 0 12 1 6 2 26 7 59 14 14 3 27 9 30 14 3 4 16 7 29 6 12 -1 25 3 28 8 3
5 12 1 20 -9 8 -10 14 -13 13 -8 -3 23 2 30 26 31 14 1 23 -2 20 -6 -3 -4 12
-2 33 5 21 8 38 9 40 4 2 -5 8 -9 13 -9z m-2011 -110 c0 -5 -4 -10 -10 -10 -5
0 -10 5 -10 10 0 6 5 10 10 10 6 0 10 -4 10 -10z m1645 0 c-3 -5 -1 -18 4 -28
7 -14 6 -19 -2 -19 -8 0 -12 11 -11 26 2 30 2 31 10 31 3 0 2 -4 -1 -10z
m-1587 -50 c7 -11 18 -17 27 -14 8 4 15 4 15 1 0 -17 -31 -12 -51 9 -12 13
-18 24 -13 24 5 0 15 -9 22 -20z m1606 -26 c3 -8 2 -12 -4 -9 -6 3 -10 10 -10
16 0 14 7 11 14 -7z m-1537 -36 c-3 -8 -6 -5 -6 6 -1 11 2 17 5 13 3 -3 4 -12
1 -19z m53 -3 c0 -2 -5 -7 -12 -11 -7 -5 -8 -3 -3 6 6 9 4 12 -7 8 -8 -4 -15
0 -15 7 0 10 5 11 19 4 10 -5 18 -12 18 -14z m64 -30 c18 -13 18 -14 -2 -12
-11 0 -18 5 -15 11 4 5 -1 7 -11 3 -10 -4 -15 -3 -11 3 8 13 16 12 39 -5z m40
-17 c-5 -8 -2 -9 9 -5 9 3 19 2 22 -4 4 -5 11 -6 17 -3 7 5 8 2 3 -6 -5 -9 -1
-10 16 -6 21 6 22 6 6 -4 -15 -9 -22 -8 -36 4 -10 9 -20 13 -24 10 -9 -9 -28
6 -22 17 4 5 8 9 11 9 3 0 2 -5 -2 -12z m136 -42 c0 -2 -7 -7 -16 -10 -8 -3
-12 -2 -9 4 6 10 25 14 25 6z m61 -10 c5 3 9 0 9 -6 0 -15 -23 -7 -26 8 -1 7
0 8 3 2 2 -5 9 -8 14 -4z m43 -7 c-2 -4 2 -9 8 -12 7 -3 4 -5 -8 -4 -22 1 -30
24 -8 24 7 0 11 -4 8 -8z m46 -14 c7 -9 8 -15 2 -15 -5 0 -12 7 -16 15 -3 8
-4 15 -2 15 2 0 9 -7 16 -15z m40 0 c12 -1 44 -24 33 -25 -6 0 -15 5 -19 11
-4 8 -8 8 -13 0 -4 -6 -12 -2 -20 10 -10 17 -10 20 1 13 7 -5 15 -9 18 -9z
m63 -20 c-3 -9 -8 -14 -10 -11 -3 3 -2 9 2 15 9 16 15 13 8 -4z m78 -28 c-10
-9 -11 -8 -5 6 3 10 9 15 12 12 3 -3 0 -11 -7 -18z m-608 -21 c4 -10 1 -13 -8
-9 -8 3 -12 9 -9 14 7 12 11 11 17 -5z m102 4 c3 -6 -1 -7 -9 -4 -18 7 -21 14
-7 14 6 0 13 -4 16 -10z m50 -11 c-4 -5 -12 -9 -18 -8 -9 0 -8 2 1 6 6 2 9 10
6 15 -4 7 -2 8 5 4 6 -4 9 -12 6 -17z m-177 -24 c-3 -3 -9 2 -12 12 -6 14 -5
15 5 6 7 -7 10 -15 7 -18z m202 5 c0 -5 -2 -10 -4 -10 -3 0 -8 5 -11 10 -3 6
-1 10 4 10 6 0 11 -4 11 -10z m-246 -46 c-15 -16 -23 -22 -18 -14 25 42 39 59
42 51 2 -5 -9 -22 -24 -37z m19 -9 c-3 -9 -8 -14 -10 -11 -3 3 -2 9 2 15 9 16
15 13 8 -4z m786 -1 c4 3 7 -4 7 -15 0 -19 -1 -19 -13 -3 -7 10 -13 23 -12 28
0 6 3 5 6 -2 2 -6 8 -10 12 -8z m841 -35 c0 -5 -4 -9 -8 -9 -5 0 -9 7 -9 15 0
8 4 12 9 9 4 -3 8 -9 8 -15z m-1185 -27 c-3 -3 -11 0 -18 7 -9 10 -8 11 6 5
10 -3 15 -9 12 -12z m325 -7 c0 -8 -2 -15 -4 -15 -2 0 -6 7 -10 15 -3 8 -1 15
4 15 6 0 10 -7 10 -15z m-810 1 c0 -3 -4 -8 -10 -11 -5 -3 -10 -1 -10 4 0 6 5
11 10 11 6 0 10 -2 10 -4z m538 -21 c-3 -3 -9 2 -12 12 -6 14 -5 15 5 6 7 -7
10 -15 7 -18z m-568 -5 c0 -5 -2 -10 -4 -10 -3 0 -8 5 -11 10 -3 6 -1 10 4 10
6 0 11 -4 11 -10z m-12 -35 c-3 -3 -9 2 -12 12 -6 14 -5 15 5 6 7 -7 10 -15 7
-18z m-35 -29 c4 -10 1 -13 -8 -10 -10 4 -13 0 -10 -15 2 -12 0 -21 -6 -21 -5
0 -7 10 -5 23 3 12 5 25 5 30 2 13 19 8 24 -7z m1725 -20 c-2 -1 -12 -8 -22
-16 -18 -14 -18 -14 -6 7 8 12 18 19 23 16 4 -3 7 -6 5 -7z m-14 -50 c-6 -15
-24 -23 -24 -11 0 8 24 34 28 30 1 -1 0 -10 -4 -19z m-1784 -46 c0 -5 -4 -10
-10 -10 -5 0 -10 5 -10 10 0 6 5 10 10 10 6 0 10 -4 10 -10z m1755 -10 c3 -5
1 -10 -4 -10 -6 0 -11 5 -11 10 0 6 2 10 4 10 3 0 8 -4 11 -10z m-1775 -28 c0
-15 -2 -15 -10 -2 -13 20 -13 33 0 25 6 -3 10 -14 10 -23z m-34 -50 c1 -7 0
-8 -3 -2 -2 5 -9 8 -14 4 -5 -3 -9 0 -9 6 0 15 23 7 26 -8z m-35 -35 c-10 -9
-11 -8 -5 6 3 10 9 15 12 12 3 -3 0 -11 -7 -18z m1776 1 c-3 -8 -6 -5 -6 6 -1
11 2 17 5 13 3 -3 4 -12 1 -19z m-12 -18 c3 -5 1 -10 -4 -10 -6 0 -11 5 -11
10 0 6 2 10 4 10 3 0 8 -4 11 -10z m-1735 -60 c0 -5 -2 -10 -4 -10 -3 0 -8 5
-11 10 -3 6 -1 10 4 10 6 0 11 -4 11 -10z m45 -41 c-4 -5 -12 -9 -18 -8 -9 0
-8 2 1 6 6 2 9 10 6 15 -4 7 -2 8 5 4 6 -4 9 -12 6 -17z m1615 1 c0 -5 -2 -10
-4 -10 -3 0 -8 5 -11 10 -3 6 -1 10 4 10 6 0 11 -4 11 -10z m-1597 -15 c-3 -9
-8 -14 -10 -11 -3 3 -2 9 2 15 9 16 15 13 8 -4z m24 -9 c-3 -7 0 -20 6 -27 10
-11 9 -11 -5 0 -15 11 -15 41 -1 41 3 0 3 -6 0 -14z m107 -66 c7 -5 17 -6 21
-2 5 4 5 2 1 -5 -4 -7 2 -18 14 -25 11 -7 20 -17 20 -22 0 -4 -18 8 -40 28
-24 21 -46 33 -55 30 -8 -4 -15 -1 -15 4 0 13 36 7 54 -8z m1321 -20 c3 -5 1
-10 -4 -10 -6 0 -11 5 -11 10 0 6 2 10 4 10 3 0 8 -4 11 -10z m-34 -17 c13
-16 12 -17 -3 -4 -10 7 -18 15 -18 17 0 8 8 3 21 -13z m79 -32 c0 -11 8 -25
18 -30 9 -6 13 -11 9 -11 -5 0 -2 -7 5 -15 31 -34 36 -43 31 -49 -4 -3 1 -6
10 -6 10 0 17 -4 17 -10 0 -5 7 -10 16 -10 13 0 14 -3 5 -14 -10 -12 -8 -13
10 -9 19 5 21 3 17 -15 -5 -19 -3 -20 13 -11 13 6 19 6 19 -1 0 -5 7 -10 15
-10 8 0 15 -5 15 -11 0 -5 5 -7 10 -4 6 3 10 -2 10 -12 0 -15 2 -16 10 -3 8
13 14 8 12 -11 -1 -3 10 -5 23 -3 14 1 25 -2 25 -7 0 -5 6 -8 13 -7 20 5 10
-39 -15 -64 -17 -17 -33 -22 -66 -21 -24 1 -49 6 -56 12 -7 6 -17 7 -21 3 -5
-4 -4 -1 0 7 6 11 4 13 -8 8 -18 -7 -19 12 -2 26 6 5 0 5 -12 2 -17 -5 -23 -2
-23 10 0 9 -5 13 -10 10 -6 -4 -9 -3 -8 2 1 4 -3 18 -10 31 -7 12 -10 28 -6
34 4 7 3 8 -4 4 -11 -6 -16 6 -13 27 0 4 -3 6 -8 5 -14 -5 -61 50 -48 56 7 3
3 4 -8 4 -42 -2 -57 2 -52 15 4 10 -7 11 -47 6 -28 -3 -58 -9 -66 -13 -16 -7
-23 -66 -9 -66 5 0 9 -7 9 -16 0 -9 -5 -12 -12 -8 -7 4 -8 3 -4 -5 4 -6 12 -9
17 -6 8 6 41 -22 68 -57 11 -15 10 -17 -9 -13 -13 2 -19 1 -16 -3 7 -7 11 -8
37 -11 5 0 8 -5 5 -10 -4 -5 0 -11 6 -14 10 -3 10 -9 1 -25 -11 -18 -10 -20 4
-15 11 4 14 3 9 -5 -4 -7 -2 -12 5 -12 9 0 9 -3 -1 -14 -9 -12 -7 -17 9 -28
12 -7 21 -19 21 -27 0 -11 -3 -11 -17 0 -16 13 -17 12 -5 -3 8 -10 20 -14 30
-11 9 3 14 3 10 -1 -3 -4 7 -20 23 -35 16 -15 25 -32 21 -36 -4 -5 -1 -5 5 -1
7 4 20 -2 30 -14 10 -11 22 -20 28 -20 5 0 3 5 -5 10 -17 11 -10 13 14 4 9 -3
14 -9 12 -13 -2 -3 8 -7 22 -7 63 -3 92 -9 92 -19 0 -5 4 -4 9 3 6 10 10 8 14
-9 3 -13 1 -30 -6 -38 -9 -12 -9 -13 1 -7 6 4 12 2 12 -3 0 -6 -4 -11 -10 -11
-5 0 -7 -6 -4 -13 2 -7 0 -24 -5 -38 -5 -13 -10 -18 -10 -11 -1 7 -5 11 -10 7
-10 -5 -81 30 -91 45 -3 5 -12 10 -20 12 -19 4 -40 24 -40 38 0 6 -4 8 -10 5
-5 -3 -25 8 -42 24 -18 17 -37 31 -42 31 -5 0 -3 7 4 15 10 12 8 14 -9 10 -16
-3 -21 1 -21 18 0 18 -2 19 -10 7 -8 -13 -10 -13 -10 1 0 9 -7 19 -15 23 -8 3
-15 13 -15 21 0 9 -4 13 -10 10 -5 -3 -12 6 -16 20 -3 13 -10 23 -14 20 -11
-7 -22 24 -13 37 4 7 1 8 -6 4 -8 -5 -14 0 -18 13 -3 12 -10 21 -15 21 -5 0
-6 5 -3 10 3 6 1 10 -4 10 -6 0 -11 7 -11 15 0 8 -4 15 -10 15 -5 0 -10 5 -10
11 0 5 5 7 10 4 6 -3 10 -1 10 4 0 6 -7 11 -15 11 -15 0 -24 13 -29 42 -1 7
-10 30 -19 51 -14 33 -15 41 -3 53 8 8 22 14 30 14 9 0 16 4 16 10 0 5 7 7 15
3 9 -3 23 2 33 10 9 8 29 19 45 22 18 5 27 14 27 27 0 10 -5 16 -10 13 -6 -4
-7 -11 -4 -17 4 -7 2 -8 -5 -4 -9 6 -9 11 -1 21 11 14 27 14 46 2 12 -7 64 13
64 26 0 5 7 2 15 -7 8 -8 15 -24 15 -35z m-154 -13 c3 -4 -1 -5 -10 -4 -8 1
-18 5 -22 8 -3 4 1 5 10 4 8 -1 18 -5 22 -8z m-993 -33 c-7 -21 -12 -19 -10 4
0 11 5 18 9 15 4 -3 5 -11 1 -19z m937 10 c7 -9 8 -15 2 -15 -5 0 -12 7 -16
15 -3 8 -4 15 -2 15 2 0 9 -7 16 -15z m-960 -5 c0 -5 -2 -10 -4 -10 -3 0 -8 5
-11 10 -3 6 -1 10 4 10 6 0 11 -4 11 -10z m930 6 c0 -2 -8 -10 -17 -17 -16
-13 -17 -12 -4 4 13 16 21 21 21 13z m-880 -16 c0 -5 -5 -10 -11 -10 -5 0 -7
5 -4 10 3 6 8 10 11 10 2 0 4 -4 4 -10z m840 0 c0 -5 -2 -10 -4 -10 -3 0 -8 5
-11 10 -3 6 -1 10 4 10 6 0 11 -4 11 -10z m-800 -10 c0 8 3 11 6 7 3 -3 3 -10
0 -16 -8 -12 -36 -3 -36 11 0 6 6 5 15 -2 12 -10 15 -10 15 0z m50 -14 c0 -2
-9 -6 -20 -9 -11 -3 -18 -1 -14 4 5 9 34 13 34 5z m25 -6 c3 -5 1 -10 -4 -10
-6 0 -11 5 -11 10 0 6 2 10 4 10 3 0 8 -4 11 -10z m603 -25 c-3 -3 -9 2 -12
12 -6 14 -5 15 5 6 7 -7 10 -15 7 -18z m-483 -3 c-3 -3 -11 0 -18 7 -9 10 -8
11 6 5 10 -3 15 -9 12 -12z m39 -5 c-2 -7 -15 -13 -27 -14 -21 -2 -21 -1 3 12
31 18 30 18 24 2z m69 -11 c4 -10 1 -13 -8 -9 -8 3 -12 9 -9 14 7 12 11 11 17
-5z m49 0 c7 4 8 2 4 -4 -4 -6 -13 -9 -21 -6 -8 4 -12 11 -8 17 5 8 8 7 11 -1
2 -7 9 -9 14 -6z m66 -12 c2 -1 -8 -1 -21 0 -15 0 -23 6 -20 14 4 10 9 10 22
0 9 -7 17 -13 19 -14z m29 11 c0 -8 -4 -12 -9 -9 -5 3 -6 10 -3 15 9 13 12 11
12 -6z m38 5 c-3 -5 -12 -10 -18 -10 -7 0 -6 4 3 10 19 12 23 12 15 0z m1735
-550 c0 -5 -5 -10 -11 -10 -5 0 -7 5 -4 10 3 6 8 10 11 10 2 0 4 -4 4 -10z"/>
<path d="M3570 2886 c0 -2 7 -7 16 -10 8 -3 12 -2 9 4 -6 10 -25 14 -25 6z"/>
<path d="M2926 2642 c-3 -5 1 -9 9 -9 8 0 12 4 9 9 -3 4 -7 8 -9 8 -2 0 -6 -4
-9 -8z"/>
<path d="M3590 2561 c0 -6 4 -13 10 -16 6 -3 7 1 4 9 -7 18 -14 21 -14 7z"/>
<path d="M3790 1661 c0 -6 4 -13 10 -16 6 -3 7 1 4 9 -7 18 -14 21 -14 7z"/>
<path d="M3856 1293 c-6 -14 -5 -15 5 -6 7 7 10 15 7 18 -3 3 -9 -2 -12 -12z"/>
<path d="M2420 1804 c0 -8 5 -12 10 -9 6 4 8 11 5 16 -9 14 -15 11 -15 -7z"/>
<path d="M2556 1707 c3 -10 9 -15 12 -12 3 3 0 11 -7 18 -10 9 -11 8 -5 -6z"/>
<path d="M2287 1639 c7 -7 15 -10 18 -7 3 3 -2 9 -12 12 -14 6 -15 5 -6 -5z"/>
<path d="M2515 1281 c-3 -5 -2 -12 3 -15 5 -3 9 1 9 9 0 17 -3 19 -12 6z"/>
<path d="M2549 1263 c-13 -16 -12 -17 4 -4 16 13 21 21 13 21 -2 0 -10 -8 -17
-17z"/>
<path d="M2566 1238 c3 -5 10 -6 15 -3 13 9 11 12 -6 12 -8 0 -12 -4 -9 -9z"/>
<path d="M2616 1222 c-3 -5 1 -9 9 -9 8 0 12 4 9 9 -3 4 -7 8 -9 8 -2 0 -6 -4
-9 -8z"/>
<path d="M3300 3086 c0 -2 8 -10 18 -17 15 -13 16 -12 3 4 -13 16 -21 21 -21
13z"/>
<path d="M3586 2998 c3 -5 10 -6 15 -3 13 9 11 12 -6 12 -8 0 -12 -4 -9 -9z"/>
<path d="M3906 2802 c-3 -5 1 -9 9 -9 8 0 12 4 9 9 -3 4 -7 8 -9 8 -2 0 -6 -4
-9 -8z"/>
<path d="M1312 2598 c2 -6 10 -14 16 -16 7 -2 10 2 6 12 -7 18 -28 22 -22 4z"/>
<path d="M3735 2329 c-4 -6 -5 -12 -2 -15 2 -3 7 2 10 11 7 17 1 20 -8 4z"/>
<path d="M1540 1690 c0 -5 5 -10 11 -10 5 0 7 5 4 10 -3 6 -8 10 -11 10 -2 0
-4 -4 -4 -10z"/>
<path d="M2085 1690 c-3 -5 -1 -10 4 -10 6 0 11 5 11 10 0 6 -2 10 -4 10 -3 0
-8 -4 -11 -10z"/>
<path d="M3635 1681 c-3 -5 -2 -12 3 -15 5 -3 9 1 9 9 0 17 -3 19 -12 6z"/>
<path d="M4176 1538 c3 -5 10 -6 15 -3 13 9 11 12 -6 12 -8 0 -12 -4 -9 -9z"/>
<path d="M2910 1459 c0 -5 5 -7 10 -4 6 3 10 8 10 11 0 2 -4 4 -10 4 -5 0 -10
-5 -10 -11z"/>
<path d="M2657 1370 c7 -8 20 -15 29 -16 9 -1 13 1 9 4 -4 4 -10 7 -13 7 -4 0
-14 4 -22 9 -12 7 -13 6 -3 -4z"/>
<path d="M2753 1366 c0 -15 22 -15 34 0 4 5 4 6 -1 2 -5 -4 -14 -3 -21 2 -8 7
-12 5 -12 -4z"/>
<path d="M2713 1345 c0 -8 4 -12 9 -9 5 3 6 10 3 15 -9 13 -12 11 -12 -6z"/>
<path d="M3270 1219 c0 -5 5 -7 10 -4 6 3 10 8 10 11 0 2 -4 4 -10 4 -5 0 -10
-5 -10 -11z"/>
<path d="M3525 960 c3 -5 8 -10 11 -10 2 0 4 5 4 10 0 6 -5 10 -11 10 -5 0 -7
-4 -4 -10z"/>
</g>
</svg>
